<?xml version="1.0" encoding="UTF-8" standalone="no"?>
<svg
   xmlns:dc="http://purl.org/dc/elements/1.1/"
   xmlns:cc="http://creativecommons.org/ns#"
   xmlns:rdf="http://www.w3.org/1999/02/22-rdf-syntax-ns#"
   xmlns:svg="http://www.w3.org/2000/svg"
   xmlns="http://www.w3.org/2000/svg"
   id="svg213"
   version="1.1"
   viewBox="0 0 74.166885 51.284981"
   height="51.284981mm"
   width="74.166885mm">
  <defs
     id="defs207" />
  <metadata
     id="metadata210">
    <rdf:RDF>
      <cc:Work
         rdf:about="">
        <dc:format>image/svg+xml</dc:format>
        <dc:type
           rdf:resource="http://purl.org/dc/dcmitype/StillImage" />
        <dc:title></dc:title>
      </cc:Work>
    </rdf:RDF>
  </metadata>
  <g
     transform="translate(100.58344,-77.833718)"
     id="layer1">
    <path
       id="path77"
       d="m -56.316383,77.833718 2.796865,1.509547 1.99776,9.235349 -1.015529,1.889992 4.328483,3.382657 -0.449495,-3.167121 1.797987,-1.475545 2.031055,1.724243 1.681451,-0.86214 -0.482793,-0.746053 1.498319,-3.18302 4.894517,-0.116048 0.116535,2.884604 2.347371,3.133563 8.357301,4.710309 -8.723559,19.412275 1.032177,2.20503 -1.048824,6.29555 -13.301761,0.10065 -2.563794,-0.1342 -2.996642,-3.40168 -3.046587,0.0168 -3.013289,4.00571 -2.663682,0.0503 0.0333,2.19995 -5.993286,-0.084 -2.130944,1.69826 -14.966565,-7.21724 -14.783428,-4.4157 0.44949,-1.61988 2.347371,-1.11814 -0.549383,-1.83451 1.964465,-3.98104 5.660324,-2.97776 6.459426,-0.46553 2.330722,-14.025443 -2.613736,-3.514768 -0.06659,-3.249346 3.795747,-0.08289 -0.01664,-1.906683 -2.913404,0.03316 v -2.868859 l 6.925575,-0.04976 3.17977,-1.857824 1.514967,1.459759 0.08324,2.802665 6.575964,2.205167 z"
       class="state__path"
       style="stroke-width:0.26458332;filter:url(#mapDropshadow)" />
  </g>
</svg>
