<?xml version="1.0" encoding="UTF-8" standalone="no"?>
<svg
   xmlns:dc="http://purl.org/dc/elements/1.1/"
   xmlns:cc="http://creativecommons.org/ns#"
   xmlns:rdf="http://www.w3.org/1999/02/22-rdf-syntax-ns#"
   xmlns:svg="http://www.w3.org/2000/svg"
   xmlns="http://www.w3.org/2000/svg"
   id="svg758"
   version="1.1"
   viewBox="0 0 38.689972 42.941078"
   height="42.941078mm"
   width="38.689972mm">
  <defs
     id="defs752" />
  <metadata
     id="metadata755">
    <rdf:RDF>
      <cc:Work
         rdf:about="">
        <dc:format>image/svg+xml</dc:format>
        <dc:type
           rdf:resource="http://purl.org/dc/dcmitype/StillImage" />
        <dc:title></dc:title>
      </cc:Work>
    </rdf:RDF>
  </metadata>
  <g
     transform="translate(32.952126,-107.70808)"
     id="layer1">
    <path
       id="path81"
       d="m 2.5081345,111.14818 0.982232,0.773 0.06659,1.98476 0.682566,0.11783 0.382905,1.49896 -0.449495,0.20223 v 1.39961 l -0.76581,0.23623 -0.133183,-0.2531 -0.649272,0.0338 -0.283017,0.47249 1.09877,2.29748 2.297425,1.16725 -3.84569,6.10894 -0.8324,-0.56137 -1.581563,1.51467 -0.499441,6.64646 0.849051,4.86428 -1.881228,6.22663 0.68257,1.80747 -0.566034,0.90526 -1.015526,0.47044 -0.665922,1.58766 -2.597089,-1.77935 0.332959,-0.88817 -1.797984,-1.63445 0.532735,-2.11644 0.982233,-0.15592 1.298545,-3.81973 -18.0797385,-7.76219 -7.757972,4.3368 0.04995,-1.6136 -0.948939,-8.31768 -1.348488,-7.12222 3.196418,-4.60726 2.413963,2.46192 4.728036,-0.8099 1.981112,-2.59514 -0.782457,-2.08608 1.564915,-1.2267 3.063232,1.51252 2.230834,-1.56291 h 1.531618 l 2.647034,-2.58453 2.2141835,2.1143 -0.03329,1.17586 1.481672,0.0336 4.178648,-3.89381 3.16312,1.97926 0.599329,-0.57055 0.982234,0.80554 -0.283017,0.50367 z"
       class="state__path"
       style="stroke-width:0.26458332;filter:url(#mapDropshadow)" />
  </g>
</svg>
