<?xml version="1.0" encoding="UTF-8" standalone="no"?>
<svg
   xmlns:dc="http://purl.org/dc/elements/1.1/"
   xmlns:cc="http://creativecommons.org/ns#"
   xmlns:rdf="http://www.w3.org/1999/02/22-rdf-syntax-ns#"
   xmlns:svg="http://www.w3.org/2000/svg"
   xmlns="http://www.w3.org/2000/svg"
   id="svg152"
   version="1.1"
   viewBox="0 0 28.584641 39.408203"
   height="39.408203mm"
   width="28.584641mm">
  <defs
     id="defs146" />
  <metadata
     id="metadata149">
    <rdf:RDF>
      <cc:Work
         rdf:about="">
        <dc:format>image/svg+xml</dc:format>
        <dc:type
           rdf:resource="http://purl.org/dc/dcmitype/StillImage" />
        <dc:title></dc:title>
      </cc:Work>
    </rdf:RDF>
  </metadata>
  <g
     transform="translate(-122.53506,-42.950663)"
     id="layer1">
    <path
       id="path91"
       d="m 122.53506,60.519784 4.2286,-2.628778 2.83016,-4.171604 3.44614,-10.768739 5.54378,2.072782 1.46503,3.616145 1.78134,0.597355 1.94782,-1.24442 4.42837,2.173769 2.9134,-0.03319 -4.96111,6.427754 0.28302,10.392516 -2.36402,0.951605 -0.63262,-1.051748 -1.96447,0.717802 -2.06435,2.188367 -3.74581,1.488172 -2.14759,5.0927 0.61598,6.018594 -2.46391,-0.606362 -0.7991,-1.767054 -1.96447,-3.007479 1.03218,-2.750354 1.36514,-0.217818 -0.23308,-1.892176 -2.16424,0.502147 -2.68033,-3.244766 1.29855,-4.173466 -0.56603,-3.333112 z"
       class="state__path"
       style="stroke-width:0.26458332;filter:url(#mapDropshadow)" />
  </g>
</svg>
