<?xml version="1.0" encoding="UTF-8" standalone="no"?>
<svg
   xmlns:dc="http://purl.org/dc/elements/1.1/"
   xmlns:cc="http://creativecommons.org/ns#"
   xmlns:rdf="http://www.w3.org/1999/02/22-rdf-syntax-ns#"
   xmlns:svg="http://www.w3.org/2000/svg"
   xmlns="http://www.w3.org/2000/svg"
   id="svg1055"
   version="1.1"
   viewBox="0 0 46.797558 38.871189"
   height="38.871189mm"
   width="46.797558mm">
  <defs
     id="defs1049" />
  <metadata
     id="metadata1052">
    <rdf:RDF>
      <cc:Work
         rdf:about="">
        <dc:format>image/svg+xml</dc:format>
        <dc:type
           rdf:resource="http://purl.org/dc/dcmitype/StillImage" />
        <dc:title></dc:title>
      </cc:Work>
    </rdf:RDF>
  </metadata>
  <g
     transform="translate(38.517826,-121.83817)"
     id="layer1">
    <path
       id="path93"
       d="m 8.2797308,129.54907 -1.298546,3.81973 -0.982231,0.15592 -0.532736,2.11644 1.797984,1.63445 -0.33296,0.88817 -1.431729,0.0174 -0.665919,0.95897 -0.849051,-0.0349 -0.982231,0.92517 1.115417,1.87119 -0.516088,1.27926 0.682567,0.94771 -2.081001,4.17404 -1.69809602,0.0707 -0.416203,2.63708 -0.316312,0.79841 -0.566031,-0.0178 -1.13206498,3.06037 0.233072,0.4103 -3.312954,1.69746 -1.115417,-0.51865 -5.9599868,1.96946 -6.775741,2.29941 -4.711385,-13.32466 -14.949914,-0.29983 0.116536,-2.02495 2.68033,-3.47343 3.862337,-0.105 1.631505,-1.46855 3.229714,-0.0349 1.664803,0.83879 2.480553,-2.11272 -0.116535,-8.93084 2.130943,-0.77592 -0.133183,-3.92113 3.462787,-0.56617 -0.04995,1.6136 7.7746208,-4.28548 z"
       class="state__path"
       style="stroke-width:0.26458332;filter:url(#mapDropshadow)" />
  </g>
</svg>
