<?xml version="1.0" encoding="UTF-8" standalone="no"?>
<svg
   xmlns:dc="http://purl.org/dc/elements/1.1/"
   xmlns:cc="http://creativecommons.org/ns#"
   xmlns:rdf="http://www.w3.org/1999/02/22-rdf-syntax-ns#"
   xmlns:svg="http://www.w3.org/2000/svg"
   xmlns="http://www.w3.org/2000/svg"
   id="svg887"
   version="1.1"
   viewBox="0 0 48.146049 46.612579"
   height="46.612579mm"
   width="48.146049mm">
  <defs
     id="defs881" />
  <metadata
     id="metadata884">
    <rdf:RDF>
      <cc:Work
         rdf:about="">
        <dc:format>image/svg+xml</dc:format>
        <dc:type
           rdf:resource="http://purl.org/dc/dcmitype/StillImage" />
        <dc:title></dc:title>
      </cc:Work>
    </rdf:RDF>
  </metadata>
  <g
     transform="translate(165.43612,-155.76516)"
     id="layer1">
    <path
       id="path97"
       d="m -161.70696,183.36452 3.54602,-6.09119 0.0333,-5.61987 -7.30848,-0.0844 0.0333,-9.40769 13.30176,-0.10066 1.04882,-6.29555 5.99329,8.96502 27.76888,1.88324 -2.18089,6.89921 0.66592,5.91768 -2.19754,9.58107 -2.19754,0.37763 -0.93228,3.30224 -1.84793,0.31021 -3.14648,4.19856 -1.01553,3.55832 0.69922,1.602 -4.17865,0.0174 1.59821,-1.58464 0.0166,-2.03282 -1.78134,1.94584 -4.24524,0.10437 -3.64592,-2.17167 -3.09653,0.76377 -3.31295,2.64402 -3.61262,-2.9392 v -4.44972 l -7.87451,0.0173 -0.0499,-3.37833 -1.6648,-1.92482 1.39843,0.0687 -0.0832,-2.12661 -0.54938,-2.5492 z"
       class="state__path"
       style="stroke-width:0.26458332;filter:url(#mapDropshadow)" />
  </g>
</svg>
