<?xml version="1.0" encoding="UTF-8" standalone="no"?>
<svg
   xmlns:dc="http://purl.org/dc/elements/1.1/"
   xmlns:cc="http://creativecommons.org/ns#"
   xmlns:rdf="http://www.w3.org/1999/02/22-rdf-syntax-ns#"
   xmlns:svg="http://www.w3.org/2000/svg"
   xmlns="http://www.w3.org/2000/svg"
   id="svg306"
   version="1.1"
   viewBox="0 0 54.538891 52.563919"
   height="52.563919mm"
   width="54.538891mm">
  <defs
     id="defs300" />
  <metadata
     id="metadata303">
    <rdf:RDF>
      <cc:Work
         rdf:about="">
        <dc:format>image/svg+xml</dc:format>
        <dc:type
           rdf:resource="http://purl.org/dc/dcmitype/StillImage" />
        <dc:title></dc:title>
      </cc:Work>
    </rdf:RDF>
  </metadata>
  <g
     transform="translate(-173.81389,-3.86685)"
     id="layer1">
    <path
       id="path99"
       d="m 228.35278,18.807213 -3.44614,10.76874 -2.83016,4.171603 -4.2286,2.628778 -0.88234,0.799108 2.38066,0.982575 -2.31407,4.885589 -1.26525,0.333883 -1.48167,3.375377 0.93228,0.987015 -4.51161,8.690888 -27.76888,-1.883236 -5.99328,-8.965019 -1.03218,-2.205025 8.72356,-19.412277 -8.3573,-4.710308 -2.34737,-3.133564 -0.11654,-2.884603 0.0999,-4.2941724 7.39172,-2.6867081 4.77797,-0.1658752 -0.18312,-2.2231313 4.96111,0.033187 0.56603,3.1022127 h 1.74804 l 3.12982,2.0729718 5.39396,10.3123335 2.88011,-0.215558 -0.21643,-1.674608 6.70915,-5.86878 0.66592,1.39261 1.59821,-0.132627 4.96111,2.60277 0.0832,1.044443 1.99776,0.696315 1.2819,-0.99473 z"
       class="state__path"
       style="stroke-width:0.26458332;filter:url(#mapDropshadow)" />
  </g>
</svg>
