<?xml version="1.0" encoding="UTF-8" standalone="no"?>
<svg
   xmlns:dc="http://purl.org/dc/elements/1.1/"
   xmlns:cc="http://creativecommons.org/ns#"
   xmlns:rdf="http://www.w3.org/1999/02/22-rdf-syntax-ns#"
   xmlns:svg="http://www.w3.org/2000/svg"
   xmlns="http://www.w3.org/2000/svg"
   id="svg545"
   version="1.1"
   viewBox="0 0 27.369329 9.2831097"
   height="9.2831097mm"
   width="27.369329mm">
  <defs
     id="defs539" />
  <metadata
     id="metadata542">
    <rdf:RDF>
      <cc:Work
         rdf:about="">
        <dc:format>image/svg+xml</dc:format>
        <dc:type
           rdf:resource="http://purl.org/dc/dcmitype/StillImage" />
        <dc:title></dc:title>
      </cc:Work>
    </rdf:RDF>
  </metadata>
  <g
     transform="translate(-178.32724,-132.8525)"
     id="layer1">
    <path
       id="path103"
       d="m 205.69657,134.05615 -1.2819,5.72859 -1.73139,-0.26845 -0.76581,0.41947 -1.08212,-0.28525 -2.78022,2.16584 -0.31631,-0.31919 -0.86569,-0.0168 -0.23308,0.4872 -3.57932,-2.30028 -1.84793,2.01466 -0.58268,-0.72222 0.28302,-0.50368 -0.98224,-0.80553 -0.59933,0.57055 -3.16312,-1.97927 -4.17865,3.89382 -1.48167,-0.0336 0.0333,-1.17586 -2.21419,-2.1143 3.01329,-2.54692 -0.0166,-1.03779 -0.71587,-0.26772 0.0166,-1.25441 0.71586,-0.30093 3.66256,-0.26745 2.36402,1.78933 h 1.78134 l 3.16312,-0.10039 2.9467,-1.97307 1.33184,0.81907 -1.53162,2.04091 1.39844,1.62436 1.61485,-0.73701 0.11654,-0.92083 1.44837,-0.58573 1.03218,0.16733 1.98112,-0.75287 0.24971,-0.81944 1.74805,-0.28421 z"
       class="state__path"
       style="stroke-width:0.26458332;filter:url(#mapDropshadow)" />
  </g>
</svg>
