<?xml version="1.0" encoding="UTF-8" standalone="no"?>
<svg
   xmlns:dc="http://purl.org/dc/elements/1.1/"
   xmlns:cc="http://creativecommons.org/ns#"
   xmlns:rdf="http://www.w3.org/1999/02/22-rdf-syntax-ns#"
   xmlns:svg="http://www.w3.org/2000/svg"
   xmlns="http://www.w3.org/2000/svg"
   id="svg1181"
   version="1.1"
   viewBox="0 0 16.7313 11.80829"
   height="11.80829mm"
   width="16.7313mm">
  <defs
     id="defs1175" />
  <metadata
     id="metadata1178">
    <rdf:RDF>
      <cc:Work
         rdf:about="">
        <dc:format>image/svg+xml</dc:format>
        <dc:type
           rdf:resource="http://purl.org/dc/dcmitype/StillImage" />
        <dc:title></dc:title>
      </cc:Work>
    </rdf:RDF>
  </metadata>
  <g
     transform="translate(-157.18794,-278.24464)"
     id="layer1">
    <path
       id="path109"
       d="m 157.70403,290.05293 -0.51609,-1.64112 2.71363,-1.06172 -0.34961,-0.89836 -1.14871,0.39512 -0.73252,-1.20255 5.95999,-1.96946 1.11542,0.51864 3.31295,-1.69746 -0.23307,-0.4103 1.13207,-3.06037 0.56603,0.0177 0.31631,-0.79841 0.73251,0.21282 -0.0166,1.31386 3.3629,0.8536 -0.59933,0.97942 0.38291,2.14196 -1.04883,0.64396 -1.41508,0.5013 -1.83128,1.6499 0.49944,0.59286 -0.66592,1.00734 -4.22859,0.10803 -2.38067,0.39625 -1.11542,-0.61229 -3.21307,1.20714 0.18313,0.55933 z"
       class="state__path"
       style="stroke-width:0.26458332;filter:url(#mapDropshadow)" />
  </g>
</svg>
